<?xml version="1.0" encoding="utf-8"?>
<!-- Generator: Adobe Illustrator 16.0.0, SVG Export Plug-In . SVG Version: 6.00 Build 0)  -->
<!DOCTYPE svg PUBLIC "-//W3C//DTD SVG 1.1//EN" "http://www.w3.org/Graphics/SVG/1.1/DTD/svg11.dtd">
<svg xmlns="http://www.w3.org/2000/svg" xmlns:xlink="http://www.w3.org/1999/xlink" version="1.1" id="House" x="0px" y="0px" width="512" height="512" viewBox="0 0 144.083 144" enable-background="new 0 0 144.083 144" xml:space="preserve">
<path d="M126.38,77.209l-10.193-39.856c-0.34-1.328-1.536-2.257-2.906-2.257h-10.107V21.32c0-1.657-1.343-3-3-3H81.73  c-1.657,0-3,1.343-3,3v13.775H30.801c-1.371,0-2.567,0.929-2.906,2.257L17.702,77.209c-0.23,0.898-0.032,1.852,0.537,2.584  s1.443,1.16,2.37,1.16h8.154l2.387,41.898c0.09,1.588,1.405,2.828,2.995,2.828h75.792c1.591,0,2.904-1.24,2.995-2.828l2.388-41.898  h8.154c0.927,0,1.802-0.428,2.369-1.16C126.412,79.061,126.61,78.107,126.38,77.209z M84.73,24.32h12.443v10.775H84.73V24.32z   M107.103,119.68H36.979l-2.206-38.727h74.538L107.103,119.68z M112.486,74.953H31.597h-7.125l0.999-3.905h9.669v-6h-8.135  l1.029-4.023h9.372v-6h-7.838L30.598,51h9.682v-6h-8.147l0.999-3.904h77.821L111.95,45h-11.671v6h12v-4.715l7.331,28.668H112.486z"/>
<rect x="76.279" y="45" width="12" height="6"/>
<rect x="52.279" y="45" width="12" height="6"/>
<rect x="73.406" y="55.024" width="12.001" height="6"/>
<rect x="97.407" y="55.024" width="12" height="6"/>
<rect x="49.406" y="55.024" width="12" height="6"/>
<rect x="95.14" y="65.048" width="12" height="6"/>
<rect x="71.141" y="65.048" width="12" height="6"/>
<rect x="47.141" y="65.048" width="12" height="6"/>
<path d="M45.124,113.207h20c1.657,0,3-1.342,3-3v-20c0-1.656-1.343-3-3-3h-20c-1.657,0-3,1.344-3,3v20  C42.124,111.865,43.467,113.207,45.124,113.207z M48.124,93.207h14v14h-14V93.207z"/>
<path d="M78.958,113.207h20c1.657,0,3-1.342,3-3v-20c0-1.656-1.343-3-3-3h-20c-1.657,0-3,1.344-3,3v20  C75.958,111.865,77.301,113.207,78.958,113.207z M81.958,93.207h14v14h-14V93.207z"/>
</svg>
